<?xml version="1.0" standalone="no"?>
<!DOCTYPE svg PUBLIC "-//W3C//DTD SVG 20010904//EN"
 "http://www.w3.org/TR/2001/REC-SVG-20010904/DTD/svg10.dtd">
<svg version="1.0" xmlns="http://www.w3.org/2000/svg"
 width="512.000000pt" height="512.000000pt" viewBox="0 0 512.000000 512.000000"
 preserveAspectRatio="xMidYMid meet">

<g transform="translate(0.000000,512.000000) scale(0.100000,-0.100000)"
fill="#000000" stroke="none">
<path d="M1471 4230 l-404 -399 -230 225 -230 226 -121 -121 -121 -121 350
-350 350 -350 527 527 528 528 -117 117 c-65 65 -120 118 -123 117 -3 0 -187
-180 -409 -399z"/>
<path d="M2560 3990 l0 -220 1095 0 1095 0 0 220 0 220 -1095 0 -1095 0 0
-220z"/>
<path d="M1472 2803 l-403 -396 -67 64 c-37 35 -140 136 -230 224 l-162 160
-120 -120 -120 -120 350 -350 350 -350 525 525 525 525 -117 117 c-65 65 -120
118 -123 118 -3 0 -186 -179 -408 -397z"/>
<path d="M2560 2560 l0 -220 1095 0 1095 0 0 220 0 220 -1095 0 -1095 0 0
-220z"/>
<path d="M1468 1374 l-398 -396 -232 226 -233 226 -120 -120 -120 -120 353
-352 352 -353 525 525 525 525 -117 117 c-65 65 -122 118 -127 118 -5 0 -189
-178 -408 -396z"/>
<path d="M2560 1130 l0 -220 1095 0 1095 0 0 220 0 220 -1095 0 -1095 0 0
-220z"/>
</g>
</svg>
